<svg width="71" height="36" viewBox="0 0 71 36" fill="none" xmlns="http://www.w3.org/2000/svg">
<g clip-path="url(#clip0_523_16777)">
<path fill-rule="evenodd" clip-rule="evenodd" d="M25.6333 9.77467C32.3926 4.92856 42.5704 3.0742 48.8037 5.16633C53.1765 6.63708 55.6037 10.1767 53.5778 15.366C53.5247 15.502 53.5691 15.6246 53.7136 15.4591C66.0765 -0.862502 39.3753 -5.31887 25.5074 9.60431C25.3333 9.79183 25.3815 9.95607 25.6333 9.77467Z" fill="#F47920"/>
<path fill-rule="evenodd" clip-rule="evenodd" d="M25.6852 15.7364H27.637C27.9584 15.7257 28.28 15.7413 28.5988 15.783C30.821 16.0992 30.2938 18.787 28.6321 19.3618C28.1691 19.5223 27.5407 19.6069 26.679 19.6069H24.9284L25.6852 15.7364ZM70.5 11.9615C67.2259 10.8891 63.0321 10.9099 60.1988 12.4407C59.1136 16.6005 51.5457 22.9185 39.7198 22.2763C39.5864 22.269 39.5494 22.2371 39.5457 22.2015C39.542 22.166 39.5691 22.128 39.7037 22.1109C40.8 21.9601 41.9889 21.7432 42.9296 21.5078L46.0556 15.6175H46.1444L46.7975 20.1989C48.7938 19.6143 50.9815 18.423 52.6235 16.5147L51.821 11.6698H42.1494L34.9593 24.7986C34.8778 23.812 34.6531 23.1257 34.1469 22.5435C33.6407 21.9613 32.8802 21.5385 31.9321 21.3865L31.9432 21.3363C34.563 20.8105 36.6963 19.1914 37.1815 16.4264C37.9728 11.9112 33.3827 11.6465 30.2284 11.6698H1.53704L0.5 17.0368H6.69136L4.21111 29.8445H11.2407L13.7321 17.038H18.7173L16.2259 29.8482H23.263L24.4617 23.6809H26.0543C27.4778 23.6809 28.1309 24.1711 28.0296 26.2093L27.8111 29.8543H39.1951L41.0963 25.9189H47.0222L47.4667 29.8543H54.837L54.442 27.4509C58.0148 31.1278 63.8494 30.2563 67.2296 29.4401L68.1654 24.616C66.6198 25.0303 65.3802 25.3428 64.1802 25.3428C62.1173 25.3428 59.9827 24.4849 59.9827 21.699C59.9827 18.3899 62.6667 16.0171 65.9086 16.0171C66.9679 16.0171 68.4407 16.3198 69.5691 16.6434L70.5 11.9615Z" fill="#21409A"/>
<path d="M38.6988 35.451V34.1298C38.6988 33.8491 38.5864 33.6273 38.2494 33.6273C37.963 33.6273 37.679 33.8565 37.679 34.3516V35.4547H37.4136V34.1298C37.4136 33.8491 37.3012 33.6273 36.963 33.6273C36.6765 33.6273 36.3938 33.8565 36.3938 34.3516V35.4547H36.1309V33.9349C36.1336 33.7786 36.1279 33.6224 36.1136 33.4667H36.3679V33.8025H36.3765C36.4335 33.6781 36.5277 33.5742 36.6464 33.5049C36.765 33.4355 36.9023 33.4043 37.0395 33.4152C37.1687 33.4055 37.2969 33.443 37.4002 33.5207C37.5034 33.5984 37.5745 33.7108 37.6 33.8369H37.6086C37.6663 33.7074 37.7616 33.5981 37.8824 33.5229C38.0032 33.4478 38.144 33.4103 38.2864 33.4152C38.3764 33.4088 38.4667 33.4217 38.5512 33.4531C38.6357 33.4844 38.7124 33.5334 38.7761 33.5968C38.8398 33.6601 38.889 33.7364 38.9204 33.8203C38.9518 33.9042 38.9646 33.9939 38.958 34.0832V35.451H38.6988Z" fill="#00539F"/>
<path d="M41.026 35.3893C40.8282 35.461 40.6193 35.4979 40.4087 35.4983C39.7062 35.4983 39.4432 35.0534 39.4432 34.4578C39.4432 33.8621 39.8025 33.416 40.3371 33.416C40.9371 33.416 41.1827 33.8695 41.1827 34.4026V34.5252H39.7309C39.7309 34.9456 39.9778 35.2851 40.4309 35.2851C40.6376 35.2785 40.8406 35.2279 41.026 35.1368V35.3893ZM40.8963 34.3181C40.8963 33.97 40.7469 33.628 40.3556 33.628C39.9642 33.628 39.7309 33.9896 39.7309 34.3181H40.8963Z" fill="#00539F"/>
<path d="M44.2482 35.4518V34.1306C44.2482 33.85 44.1358 33.6281 43.7988 33.6281C43.5111 33.6281 43.2284 33.8573 43.2284 34.3525V35.4555H42.9692V34.1306C42.9692 33.85 42.8581 33.6281 42.5198 33.6281C42.2321 33.6281 41.9494 33.8573 41.9494 34.3525V35.4555H41.6877V33.9357C41.6902 33.7795 41.6849 33.6233 41.6716 33.4676H41.9247V33.8034H41.9321C41.9894 33.6792 42.0837 33.5754 42.2022 33.5062C42.3208 33.4369 42.4579 33.4055 42.5951 33.4161C42.7244 33.4061 42.853 33.4434 42.9565 33.5211C43.06 33.5988 43.1313 33.7114 43.1568 33.8377H43.1655C43.2231 33.7082 43.3185 33.5989 43.4393 33.5238C43.5601 33.4486 43.7008 33.4111 43.8432 33.4161C43.9331 33.4099 44.0233 33.4229 44.1076 33.4543C44.1919 33.4857 44.2685 33.5348 44.3321 33.5981C44.3956 33.6615 44.4447 33.7376 44.4761 33.8215C44.5074 33.9053 44.5202 33.9949 44.5136 34.084V35.4518H44.2482Z" fill="#00539F"/>
<path d="M45.1271 32.5283H45.3889V33.7993H45.3963C45.4585 33.6796 45.5538 33.5799 45.671 33.512C45.7882 33.4441 45.9224 33.4107 46.058 33.4157C46.6827 33.4157 46.9321 33.8532 46.9321 34.4574C46.9321 35.0617 46.6407 35.498 46.058 35.498C45.9242 35.5081 45.7904 35.4793 45.6729 35.4151C45.5554 35.3509 45.4592 35.254 45.3963 35.1364H45.3889V35.4514H45.1271V32.5283ZM46.0173 33.6314C45.5395 33.6314 45.3889 34.0983 45.3889 34.4611C45.3889 34.8239 45.5506 35.2921 46.0173 35.2921C46.5111 35.2921 46.6444 34.8472 46.6444 34.4611C46.6444 34.0751 46.516 33.6277 46.0173 33.6277V33.6314Z" fill="#00539F"/>
<path d="M48.895 35.3893C48.6973 35.4611 48.4883 35.498 48.2778 35.4983C47.574 35.4983 47.3123 35.0534 47.3123 34.4578C47.3123 33.8621 47.6691 33.416 48.2074 33.416C48.8061 33.416 49.0531 33.8695 49.0531 34.4026V34.5252H47.595C47.595 34.9456 47.8358 35.2851 48.295 35.2851C48.5014 35.2786 48.704 35.228 48.8889 35.1368L48.895 35.3893ZM48.7654 34.3181C48.7654 33.97 48.6173 33.628 48.2259 33.628C47.8345 33.628 47.6012 33.9896 47.6012 34.3181H48.7654Z" fill="#00539F"/>
<path d="M49.5481 33.9075C49.5529 33.7593 49.5467 33.6111 49.5296 33.4638H49.7926V33.8462H49.8012C49.8963 33.6231 50.0753 33.416 50.3469 33.416C50.4085 33.4171 50.4699 33.4253 50.5296 33.4405V33.6979C50.4672 33.6812 50.4028 33.673 50.3382 33.6734C49.9222 33.6734 49.8098 34.1109 49.8098 34.47V35.4505H49.5481V33.9075Z" fill="#00539F"/>
<path d="M52.9197 33.416C53.6061 33.416 53.9074 33.9161 53.9074 34.4578C53.9074 34.9995 53.6037 35.4983 52.9197 35.4983C52.2358 35.4983 51.9321 34.9995 51.9321 34.4578C51.9321 33.9161 52.2284 33.416 52.9197 33.416ZM52.9197 35.2888C53.3777 35.2888 53.6222 34.9211 53.6222 34.4578C53.6222 33.9945 53.3753 33.628 52.9197 33.628C52.4642 33.628 52.2148 33.9957 52.2148 34.4578C52.2148 34.9199 52.4605 35.2888 52.9197 35.2888Z" fill="#00539F"/>
<path d="M54.584 33.6733H54.1556V33.4698H54.584V33.3252C54.584 32.9085 54.6 32.4869 55.1457 32.4869C55.2298 32.4834 55.3138 32.4967 55.3926 32.5261L55.3753 32.7406C55.3101 32.7116 55.2394 32.6969 55.1679 32.6977C54.8087 32.6977 54.8457 33.0654 54.8457 33.2982V33.4698H55.326V33.6794H54.8457V35.4578H54.584V33.6733Z" fill="#00539F"/>
<path d="M57.7901 32.7344H58.4469L59.5889 35.4553H58.9432L58.6963 34.8314H57.5173L57.2629 35.4553H56.6592L57.7901 32.7344ZM58.1099 33.2798H58.1024L57.6815 34.4024H58.5308L58.1099 33.2798Z" fill="#00539F"/>
<path d="M61.5234 33.2243C61.3364 33.1465 61.1361 33.1049 60.9333 33.1018C60.7333 33.1018 60.4741 33.1826 60.4741 33.4792C60.4741 33.9511 61.7481 33.7526 61.7481 34.6644C61.7481 35.2613 61.2444 35.4868 60.6568 35.4868C60.4062 35.4863 60.1569 35.4513 59.916 35.3826L59.9704 34.8924C60.173 34.9987 60.398 35.0562 60.6272 35.0603C60.8481 35.0603 61.1432 34.9549 61.1432 34.7098C61.1432 34.1901 59.8704 34.4046 59.8704 33.5038C59.8704 32.891 60.3728 32.674 60.8852 32.674C61.1205 32.671 61.3549 32.7037 61.5802 32.7708L61.5234 33.2243Z" fill="#00539F"/>
<path d="M62.8062 33.1584H61.9728V32.7344H64.221V33.1621H63.3877V35.4553H62.8062V33.1584Z" fill="#00539F"/>
<path d="M64.542 32.7344H65.1704C65.7877 32.7344 66.5395 32.7136 66.5395 33.4698C66.5386 33.631 66.4762 33.7859 66.3649 33.9032C66.2536 34.0206 66.1016 34.0917 65.9395 34.1022V34.1096C66.0975 34.1206 66.1864 34.2689 66.2482 34.3903L66.7136 35.4541H66.0655L65.7161 34.6047C65.6321 34.4013 65.558 34.3228 65.3111 34.3228H65.1235V35.4541H64.542V32.7344ZM65.1235 33.8963H65.3148C65.6025 33.8963 65.9321 33.8571 65.9321 33.5176C65.9321 33.1781 65.6062 33.1622 65.3148 33.1622H65.1235V33.8963Z" fill="#00539F"/>
<path d="M67.9679 32.7344H68.6247L69.7666 35.4553H69.121L68.874 34.8314H67.6963L67.4419 35.4553H66.8395L67.9679 32.7344ZM68.2876 33.2798H68.2778L67.8568 34.4024H68.7049L68.2876 33.2798Z" fill="#00539F"/>
</g>
<defs>
<clipPath id="clip0_523_16777">
<rect width="70" height="35" fill="white" transform="translate(0.5 0.5)"/>
</clipPath>
</defs>
</svg>
