<svg width="86" height="24" viewBox="0 0 86 24" fill="none" xmlns="http://www.w3.org/2000/svg">
<g clip-path="url(#clip0_523_16737)">
<path fill-rule="evenodd" clip-rule="evenodd" d="M63.3669 13.7326C63.0876 13.7272 62.8165 13.8263 62.6072 14.0102C62.3948 14.1947 62.2489 14.4714 62.1696 14.8404L61.3618 18.6406C61.2842 19.0107 61.3133 19.2877 61.4493 19.4716C61.5852 19.6556 61.7991 19.7478 62.0908 19.7484C62.3702 19.7539 62.6416 19.6552 62.8514 19.4716C63.0632 19.2872 63.209 19.0101 63.289 18.6406L64.0959 14.8404C64.1747 14.4714 64.1473 14.1947 64.0137 14.0102C63.8754 13.8257 63.6609 13.7326 63.3669 13.7326Z" fill="#F47920"/>
<path fill-rule="evenodd" clip-rule="evenodd" d="M78.6349 13.7326C78.3556 13.7272 78.0844 13.8263 77.8752 14.0102C77.6634 14.1947 77.5175 14.4714 77.4376 14.8404L76.6306 18.6406C76.5518 19.0107 76.5793 19.2877 76.7129 19.4716C76.8468 19.6561 77.063 19.7484 77.3553 19.7484C77.6344 19.754 77.9055 19.6552 78.115 19.4716C78.3268 19.2872 78.4729 19.0104 78.5526 18.6406L79.3569 14.8404C79.4351 14.4714 79.4074 14.1947 79.2738 14.0102C79.1434 13.8257 78.9298 13.7326 78.6349 13.7326Z" fill="#F47920"/>
<path fill-rule="evenodd" clip-rule="evenodd" d="M58.3193 5.43359C56.2187 5.43359 54.4097 6.88684 54.015 8.89528L51.0453 24.0003H78.226C80.3265 24.0003 82.1356 22.5471 82.5303 20.5386L85.4999 5.43359H58.3193ZM57.4685 19.3282C57.4733 19.3845 57.4901 19.4391 57.5177 19.4885C57.5453 19.5378 57.5831 19.5808 57.6287 19.6145C57.7325 19.6842 57.8537 19.7239 57.9788 19.7293C58.1232 19.7424 58.3035 19.7485 58.5214 19.7485L58.1328 21.5811H57.3259C56.8778 21.5811 56.5181 21.511 56.2467 21.3706C55.9988 21.2517 55.7888 21.0667 55.6402 20.8363C55.5042 20.613 55.423 20.3611 55.403 20.1009C55.377 19.836 55.3915 19.5688 55.4459 19.3082L56.6957 13.4264H55.7164L56.0411 11.8984H57.0204L57.6453 8.96315H59.6041L58.9792 11.9036H60.1896L59.8649 13.4317H58.6545L57.5167 18.7982C57.4715 18.9711 57.4552 19.1501 57.4685 19.3282ZM66.1411 14.0573C66.1169 14.4236 66.0651 14.7875 65.9861 15.146L65.3087 18.3353C65.2329 18.7049 65.1309 19.0687 65.0033 19.4239C64.8903 19.7388 64.7304 20.0351 64.5289 20.3028C64.2075 20.7241 63.7962 21.0694 63.3246 21.314C62.8159 21.5752 62.2499 21.7068 61.6775 21.6969C61.0631 21.6969 60.5671 21.5693 60.1896 21.314C59.8247 21.0728 59.5519 20.7167 59.415 20.3028C59.3246 20.0191 59.2904 19.7206 59.3144 19.4239C59.3379 19.0577 59.3894 18.6937 59.4684 18.3353L60.1458 15.146C60.2221 14.7764 60.3245 14.4126 60.4522 14.0573C60.5653 13.7428 60.7252 13.4468 60.9265 13.1793C61.2482 12.7579 61.6594 12.4124 62.1308 12.1673C62.6396 11.9063 63.2056 11.775 63.778 11.7852C64.3924 11.7852 64.8883 11.9126 65.2658 12.1673C65.631 12.4085 65.9039 12.765 66.0404 13.1793C66.1304 13.4628 66.1645 13.761 66.1411 14.0573ZM73.4929 19.993C73.2531 20.3513 72.9532 20.6659 72.6063 20.9233C72.272 21.1738 71.8998 21.3697 71.5035 21.5037C71.1403 21.628 70.7594 21.6933 70.3753 21.6969C70.0179 21.6979 69.6635 21.6323 69.3303 21.5037C69.0073 21.3809 68.7192 21.1816 68.491 20.9233C68.24 20.6641 68.0633 20.3429 67.979 19.993C67.8821 19.6188 67.8897 19.1681 68.0018 18.6407L69.4021 12.0376C69.4978 11.5619 69.6847 11.109 69.9526 10.7036C70.4247 9.98506 71.1274 9.4465 71.9464 9.17548C72.3091 9.05074 72.6898 8.98549 73.0736 8.9823C73.4311 8.9809 73.7856 9.04643 74.1186 9.17548C74.4432 9.29917 74.7373 9.4909 74.9807 9.73764C75.2187 10.0156 75.3849 10.3472 75.4647 10.7036C75.5582 11.1441 75.5516 11.5999 75.4455 12.0376L75.3116 12.6702H73.5086L73.6434 12.0376C73.735 11.6048 73.6822 11.2857 73.485 11.0804C73.3824 10.9775 73.2593 10.897 73.1237 10.8439C72.9881 10.7909 72.8429 10.7665 72.6973 10.7723C72.3647 10.7732 72.0413 10.8813 71.7757 11.0804C71.4904 11.2852 71.3019 11.6042 71.2103 12.0376L69.81 18.6407C69.7178 19.0741 69.7706 19.3932 69.9684 19.5979C70.0711 19.7007 70.1941 19.781 70.3297 19.8339C70.4653 19.8868 70.6105 19.911 70.7561 19.9051C71.0888 19.9041 71.4123 19.7963 71.6785 19.5979C71.9633 19.3932 72.1517 19.0741 72.2439 18.6407L72.7437 16.2912H71.3101L71.6453 14.7065H74.8774L74.0416 18.6398C73.9493 19.1222 73.7629 19.5819 73.4929 19.993ZM81.4118 14.0573C81.3876 14.4235 81.3361 14.7874 81.2578 15.146L80.5795 18.3353C80.5031 18.7049 80.4004 19.0687 80.2723 19.4239C80.1594 19.739 79.9991 20.0354 79.797 20.3028C79.4756 20.7241 79.0643 21.0694 78.5927 21.314C78.0843 21.5751 77.5186 21.7067 76.9465 21.6969C76.3321 21.6969 75.8361 21.5693 75.4586 21.314C75.0939 21.0728 74.8214 20.7166 74.6849 20.3028C74.5946 20.0191 74.5601 19.7206 74.5834 19.4239C74.6077 19.0578 74.6592 18.6939 74.7374 18.3353L75.4183 15.146C75.4948 14.7763 75.5978 14.4125 75.7264 14.0573C75.8389 13.7424 75.9988 13.4464 76.2008 13.1793C76.5224 12.7579 76.9336 12.4124 77.4051 12.1673C77.9136 11.9064 78.4792 11.7751 79.0513 11.7852C79.6657 11.7852 80.1617 11.9126 80.5392 12.1673C80.9039 12.4088 81.1764 12.7652 81.3129 13.1793C81.4011 13.4632 81.4335 13.7613 81.4083 14.0573H81.4118Z" fill="#F47920"/>
<path fill-rule="evenodd" clip-rule="evenodd" d="M18.8944 11.1473H20.321C20.555 11.1395 20.7892 11.1511 21.0212 11.1821C22.6464 11.4136 22.2596 13.3803 21.0457 13.8006C20.7078 13.9181 20.2484 13.9816 19.6182 13.9833H18.3448L18.8944 11.1491V11.1473ZM51.6274 8.38529C49.2363 7.60211 46.1713 7.61516 44.1006 8.73337C43.3076 11.7791 37.7789 16.399 29.1405 15.9291C29.0425 15.9239 29.0163 15.9004 29.0128 15.8743C29.0093 15.8482 29.0303 15.8203 29.1283 15.8082C29.9291 15.6976 30.7982 15.534 31.4852 15.367L33.7783 11.0568H33.8457L34.3227 14.4097C35.7808 13.9816 37.3789 13.1096 38.578 11.7121L38.0301 7.84141H30.9636L25.6738 17.7774C25.6134 17.0552 25.4498 16.5539 25.0795 16.124C24.7093 15.6942 24.1544 15.3887 23.4621 15.2773L23.47 15.2408C25.3832 14.8562 26.942 13.6744 27.2973 11.6477C27.875 8.34526 24.5588 7.82401 22.2552 7.84228H1.29557L0.5 12.0959H5.02311L3.21317 21.4689H8.34193L10.1615 12.0959H13.8033L11.9881 21.4715H17.1273L18.0025 16.9603L19.1657 16.9551C20.2055 16.9551 20.6833 17.3145 20.6063 18.8051L20.447 21.4715H28.7616L30.1505 18.5919H34.482L34.8084 21.4689H40.1927L39.9039 19.7102C42.5147 22.4017 46.7761 21.7639 49.246 21.166L49.9295 17.6365C48.7996 17.9393 47.8946 18.1682 47.0186 18.1682C45.5106 18.1682 43.9509 17.5407 43.9509 15.5027C43.9509 13.0809 45.9114 11.3457 48.2806 11.3457C49.0543 11.3457 50.1299 11.5668 50.9544 11.8035L51.6274 8.38529Z" fill="#21409A"/>
<path fill-rule="evenodd" clip-rule="evenodd" d="M18.8602 6.78743C23.7973 3.24221 31.2331 1.8873 35.7868 3.41625C38.9814 4.48486 40.7537 7.07982 39.2719 10.8774C39.2334 10.9775 39.2658 11.0671 39.3708 10.9461C48.4057 -0.997439 28.8989 -4.25723 18.7683 6.66125C18.6414 6.79787 18.6764 6.91796 18.8602 6.78743Z" fill="#F47920"/>
</g>
<defs>
<clipPath id="clip0_523_16737">
<rect width="85" height="24" fill="white" transform="translate(0.5)"/>
</clipPath>
</defs>
</svg>
