<svg width="78" height="24" viewBox="0 0 78 24" fill="none" xmlns="http://www.w3.org/2000/svg">
<path d="M3.31707 0H75.3064C76.6315 0 77.7078 1.07282 77.7078 2.40142V21.5986C77.7078 22.9236 76.635 24 75.3064 24H3.31707C1.99203 24 0.915649 22.9272 0.915649 21.5986V2.40142C0.919202 1.07282 1.99203 0 3.31707 0Z" fill="black"/>
<path fill-rule="evenodd" clip-rule="evenodd" d="M16.0064 4.07812C16.1343 4.95201 15.7791 5.80814 15.3101 6.4156C14.8093 7.06569 13.9425 7.57013 13.1041 7.54171C12.9514 6.70335 13.3421 5.84011 13.8217 5.26107C14.3403 4.62164 15.2391 4.13141 16.0064 4.07812ZM18.5251 16.3872C18.9585 15.7229 19.1183 15.389 19.4558 14.643C17.0153 13.7158 16.621 10.2415 19.0402 8.90939C18.3013 7.98576 17.2675 7.44935 16.2906 7.44935C15.5872 7.44935 15.1041 7.63408 14.6636 7.80104C14.2977 7.93959 13.9638 8.06747 13.5553 8.06747C13.1148 8.06747 12.724 7.92892 12.3155 7.77972C11.8679 7.61986 11.3954 7.44935 10.8093 7.44935C9.71157 7.44935 8.54283 8.12076 7.80393 9.26463C6.76308 10.8774 6.9407 13.9147 8.62809 16.5009C9.232 17.4245 10.0384 18.4653 11.0935 18.476C11.5304 18.4795 11.8217 18.3481 12.1379 18.2096C12.5002 18.0462 12.891 17.8721 13.5695 17.8685C14.2515 17.865 14.6387 18.0426 14.994 18.206C15.2995 18.3481 15.5872 18.4795 16.0206 18.4724C17.0721 18.4653 17.9212 17.3144 18.5251 16.3872Z" fill="white"/>
<path d="M25.4698 5.04121V7.91866H26.4858C27.4236 7.91866 27.7646 7.30764 27.7646 6.47283C27.7646 5.63091 27.4129 5.03766 26.4858 5.03766H25.4698V5.04121ZM25.9813 5.4675H26.4254C27.0399 5.4675 27.2424 5.88668 27.2424 6.48349C27.2424 7.19397 26.9618 7.49237 26.4254 7.49237H25.9813V5.4675ZM28.9973 6.29521C28.9973 5.71262 29.2922 5.41422 29.69 5.41422C30.0915 5.41422 30.3827 5.71262 30.3827 6.29521V6.68598C30.3827 7.26857 30.0915 7.54566 29.69 7.54566C29.2922 7.54566 28.9973 7.26857 28.9973 6.68598V6.29521ZM28.4822 6.68242C28.4822 7.49592 28.9405 7.97549 29.69 7.97549C30.4396 7.97549 30.9014 7.49592 30.9014 6.68242V6.29876C30.9014 5.48171 30.4431 4.98438 29.6936 4.98438C28.9476 4.98438 28.4822 5.48171 28.4822 6.29876V6.68242ZM32.706 7.91866L33.2602 5.84405H33.278L33.8321 7.91866H34.2975L35.0684 5.04121H34.5213L34.0453 7.15489H34.024L33.4982 5.04121H33.0399L32.5142 7.15489H32.4964L32.0169 5.04121H31.4698L32.2371 7.91866H32.706ZM36.2336 7.91866V5.89734H36.2478L37.5835 7.91866H38.0204V5.04121H37.5444V7.05542H37.5266L36.1945 5.04121H35.754V7.91866H36.2336ZM40.7629 7.48171H39.5089V5.04121H38.9973V7.91866H40.7593V7.48171H40.7629ZM41.8428 6.29521C41.8428 5.71262 42.1376 5.41422 42.5355 5.41422C42.9369 5.41422 43.2282 5.71262 43.2282 6.29521V6.68598C43.2282 7.26857 42.9369 7.54566 42.5355 7.54566C42.1376 7.54566 41.8428 7.26857 41.8428 6.68598V6.29521ZM41.3241 6.68242C41.3241 7.49592 41.7824 7.97549 42.532 7.97549C43.2815 7.97549 43.7433 7.49592 43.7433 6.68242V6.29876C43.7433 5.48171 43.2851 4.98438 42.5355 4.98438C41.7895 4.98438 41.3241 5.48171 41.3241 6.29876V6.68242ZM44.7948 7.91866L45.0399 7.14423H46.0346L46.2797 7.91866H46.8268L45.8463 5.04121H45.2673L44.2833 7.91866H44.7948ZM45.5479 5.55631L45.9245 6.75347H45.1536L45.5302 5.55631H45.5479ZM47.5266 5.04121V7.91866H48.5426C49.4804 7.91866 49.8215 7.30764 49.8215 6.47283C49.8215 5.63091 49.4698 5.03766 48.5426 5.03766H47.5266V5.04121ZM48.0346 5.4675H48.4787C49.0932 5.4675 49.2957 5.88668 49.2957 6.48349C49.2957 7.19397 49.0151 7.49237 48.4787 7.49237H48.0346V5.4675ZM52.2549 6.29521C52.2549 5.71262 52.5497 5.41422 52.9476 5.41422C53.349 5.41422 53.6403 5.71262 53.6403 6.29521V6.68598C53.6403 7.26857 53.349 7.54566 52.9476 7.54566C52.5497 7.54566 52.2549 7.26857 52.2549 6.68598V6.29521ZM51.7398 6.68242C51.7398 7.49592 52.198 7.97549 52.9476 7.97549C53.6971 7.97549 54.159 7.49592 54.159 6.68242V6.29876C54.159 5.48171 53.7007 4.98438 52.9511 4.98438C52.2051 4.98438 51.7398 5.48171 51.7398 6.29876V6.68242ZM55.5018 7.91866V5.89734H55.516L56.8517 7.91866H57.2886V5.04121H56.8126V7.05542H56.7948L55.4627 5.04121H55.0222V7.91866H55.5018ZM60.5355 7.91866V5.47105H61.3739V5.03766H59.1927V5.47105H60.0275V7.91866H60.5355ZM64.3757 7.91866V5.04121H63.8641V6.22771H62.5817V5.04121H62.0701V7.91866H62.5817V6.65756H63.8641V7.91866H64.3757ZM67.1714 7.49237H65.8606V6.65756H67.0932V6.25613H65.8606V5.46395H67.1714V5.03766H65.3526V7.9151H67.1714V7.49237Z" fill="white"/>
<path d="M24.5247 18.4762L27.0362 11.1192H28.5176L31.0255 18.4762H29.6295L29.0042 16.494H26.4643L25.839 18.4762H24.5247ZM26.752 15.5029H28.7236L27.7644 12.4407H27.7147L26.752 15.5029ZM31.8284 20.4016V12.7711H33.0717V13.5952H33.1215C33.2387 13.3217 33.4447 13.105 33.736 12.9416C34.0273 12.7746 34.3861 12.6929 34.8124 12.6929C35.4625 12.6929 35.9811 12.9203 36.3684 13.3785C36.7591 13.8332 36.9545 14.4691 36.9545 15.2862V15.9718C36.9545 16.7888 36.7591 17.4212 36.3684 17.8759C35.9811 18.327 35.4554 18.5544 34.7875 18.5544C34.3719 18.5544 34.0273 18.4727 33.7538 18.3128C33.4803 18.1494 33.2778 17.9398 33.1499 17.6769H33.0966V20.4052H31.8284V20.4016ZM33.1001 15.9007C33.1001 16.3732 33.2174 16.7604 33.4518 17.0659C33.6898 17.3679 34.006 17.5171 34.4074 17.5171C34.7875 17.5171 35.093 17.3785 35.3168 17.0979C35.5477 16.8137 35.6614 16.4016 35.6614 15.8652V15.3856C35.6614 14.8528 35.5478 14.4442 35.3204 14.1636C35.093 13.8759 34.7804 13.7338 34.3826 13.7338C33.9882 13.7338 33.6756 13.8794 33.4447 14.1707C33.2138 14.4584 33.1001 14.8421 33.1001 15.3252V15.9007ZM38.0771 20.4016V12.7711H39.3204V13.5952H39.3701C39.4874 13.3217 39.6934 13.105 39.9847 12.9416C40.276 12.7746 40.6348 12.6929 41.0611 12.6929C41.7112 12.6929 42.2298 12.9203 42.617 13.3785C43.0078 13.8332 43.2032 14.4691 43.2032 15.2862V15.9718C43.2032 16.7888 43.0078 17.4212 42.617 17.8759C42.2298 18.327 41.7041 18.5544 41.0362 18.5544C40.6206 18.5544 40.276 18.4727 40.0025 18.3128C39.7289 18.1494 39.5264 17.9398 39.3985 17.6769H39.3453V20.4052H38.0771V20.4016ZM39.3488 15.9007C39.3488 16.3732 39.466 16.7604 39.7005 17.0659C39.9385 17.3679 40.2547 17.5171 40.6561 17.5171C41.0362 17.5171 41.3417 17.3785 41.5655 17.0979C41.7964 16.8137 41.9101 16.4016 41.9101 15.8652V15.3856C41.9101 14.8528 41.7964 14.4442 41.5691 14.1636C41.3417 13.8759 41.0291 13.7338 40.6312 13.7338C40.2369 13.7338 39.9243 13.8794 39.6934 14.1707C39.4625 14.4584 39.3488 14.8421 39.3488 15.3252V15.9007ZM45.9847 16.4194H47.2529C47.2813 16.7462 47.4376 17.0197 47.7147 17.24C47.9954 17.4567 48.379 17.5632 48.8621 17.5632C49.3239 17.5632 49.6827 17.4638 49.9385 17.2684C50.2014 17.0695 50.3328 16.803 50.3328 16.4656C50.3328 16.1991 50.2405 15.986 50.0522 15.8297C49.8675 15.6698 49.5797 15.5455 49.1783 15.446L47.9989 15.1618C47.7431 15.105 47.5087 15.0268 47.2991 14.9238C47.0895 14.8208 46.8977 14.6894 46.7236 14.5366C46.5495 14.3767 46.4181 14.1814 46.3186 13.9505C46.2227 13.716 46.173 13.4531 46.173 13.1618C46.173 12.7071 46.2973 12.3092 46.546 11.9718C46.7946 11.6307 47.1179 11.3785 47.5229 11.2116C47.9243 11.0446 48.3719 10.9629 48.8657 10.9629C49.363 10.9629 49.8106 11.0482 50.2085 11.2151C50.6099 11.3856 50.9296 11.6343 51.1676 11.9682C51.4092 12.2986 51.5335 12.6823 51.5406 13.1227H50.3009C50.276 12.803 50.1375 12.5402 49.8923 12.3306C49.6437 12.121 49.2991 12.018 48.8586 12.018C48.4465 12.018 48.1126 12.1103 47.8604 12.2986C47.6117 12.4833 47.4874 12.7355 47.4874 13.0588C47.4874 13.5384 47.8248 13.8545 48.4998 14.0144L49.6863 14.2986C49.9811 14.3661 50.2405 14.4513 50.4643 14.5508C50.6881 14.6503 50.8906 14.7817 51.0717 14.938C51.26 15.0979 51.4021 15.2933 51.498 15.5313C51.5939 15.7693 51.6437 16.0428 51.6437 16.3519C51.6437 17.0624 51.3808 17.6201 50.855 18.0215C50.3328 18.4229 49.6401 18.6254 48.7733 18.6254C48.3755 18.6254 48.0131 18.5792 47.6898 18.4904C47.3701 18.4016 47.1073 18.2844 46.8977 18.1387C46.6916 17.9966 46.5211 17.8261 46.379 17.6307C46.2405 17.4318 46.1374 17.2364 46.0771 17.0375C46.0167 16.8386 45.9883 16.629 45.9847 16.4194ZM52.3364 13.8155V12.8172H53.1534V11.3927H54.3932V12.8172H55.5016V13.8155H54.3932V16.7426C54.3932 17.041 54.4572 17.2471 54.5815 17.3572C54.7094 17.4638 54.9367 17.5206 55.2565 17.5206C55.395 17.5206 55.4909 17.5171 55.5371 17.51V18.4762C55.3524 18.5046 55.157 18.5188 54.9438 18.5188C54.4785 18.5188 54.1161 18.4585 53.8497 18.3412C53.5833 18.224 53.3986 18.0499 53.2884 17.819C53.1854 17.5846 53.1321 17.2719 53.1321 16.8741V13.819H52.3364V13.8155ZM56.2405 15.819V15.414C56.2405 14.8812 56.3328 14.4123 56.514 14.0073C56.7023 13.6023 56.99 13.2791 57.3808 13.0375C57.7716 12.7959 58.2476 12.6751 58.8053 12.6751C59.6401 12.6751 60.2724 12.9238 60.7094 13.4176C61.1463 13.9114 61.3666 14.5721 61.3666 15.4069V15.8155C61.3666 16.6716 61.1499 17.343 60.7129 17.8368C60.2795 18.327 59.6437 18.5686 58.8053 18.5686C57.9669 18.5686 57.3311 18.3235 56.8906 17.8368C56.4572 17.3537 56.2405 16.6787 56.2405 15.819ZM57.5193 15.787C57.5193 16.0322 57.5406 16.2524 57.5833 16.4549C57.6259 16.6574 57.6934 16.8421 57.7893 17.0162C57.8817 17.1867 58.0167 17.3181 58.1872 17.414C58.3613 17.51 58.5673 17.5597 58.8053 17.5597C59.0433 17.5597 59.2458 17.5135 59.4199 17.4212C59.5939 17.3252 59.7254 17.1902 59.8142 17.0162C59.9065 16.8421 59.974 16.6574 60.0131 16.4549C60.0557 16.2524 60.0771 16.0322 60.0771 15.787V15.4567C60.0771 15.208 60.0557 14.9842 60.0131 14.7817C59.974 14.5792 59.9065 14.3945 59.8142 14.2204C59.7218 14.0464 59.5868 13.9149 59.4163 13.8226C59.2458 13.7267 59.0433 13.6769 58.8089 13.6769C58.5744 13.6769 58.3648 13.7267 58.1907 13.8226C58.0167 13.9185 57.8852 14.0535 57.7929 14.2275C57.7005 14.3981 57.633 14.5828 57.5868 14.7888C57.5442 14.9913 57.5229 15.2116 57.5229 15.4567V15.787H57.5193ZM62.5318 18.4762V12.7746H63.8035V13.5135H63.8533C64.07 12.9629 64.5211 12.6894 65.2067 12.6894C65.3524 12.6894 65.4945 12.7036 65.6259 12.7284V13.8439C65.5371 13.8155 65.3595 13.8013 65.0966 13.8013C64.2476 13.8013 63.8248 14.2418 63.8248 15.1263V18.4798H62.5318V18.4762ZM66.0877 15.8794V15.3998C66.0877 14.565 66.308 13.9043 66.7449 13.4176C67.1819 12.9238 67.7893 12.6787 68.5602 12.6787C69.3453 12.6787 69.9527 12.9238 70.3826 13.4176C70.8124 13.9114 71.0291 14.5686 71.0291 15.3963V15.9078H67.3417V16.0854C67.3417 16.5046 67.4518 16.8563 67.6756 17.1405C67.8994 17.4247 68.2156 17.5668 68.6312 17.5668C68.9581 17.5668 69.2138 17.4957 69.395 17.3501C69.5833 17.208 69.697 17.0233 69.7396 16.8066H70.9687C70.951 16.97 70.9083 17.1299 70.8444 17.2862C70.784 17.446 70.6916 17.6023 70.5708 17.7622C70.4501 17.922 70.3009 18.057 70.1304 18.1778C69.9598 18.295 69.7467 18.3945 69.4874 18.4691C69.228 18.5402 68.9438 18.5757 68.6348 18.5757C67.8213 18.5757 67.1925 18.3377 66.7485 17.8581C66.308 17.375 66.0877 16.7178 66.0877 15.8794ZM67.3453 15.0481H69.7929V15.0375C69.7929 14.629 69.6827 14.295 69.4625 14.0393C69.2422 13.7835 68.9474 13.6556 68.5744 13.6556C68.1978 13.6556 67.8959 13.7835 67.6756 14.0428C67.4554 14.2986 67.3453 14.629 67.3453 15.0339V15.0481Z" fill="white"/>
</svg>
