<svg width="78" height="24" viewBox="0 0 78 24" fill="none" xmlns="http://www.w3.org/2000/svg">
<path d="M3.10925 0H75.0986C76.4236 0 77.5 1.07282 77.5 2.40142V21.5986C77.5 22.9236 76.4272 24 75.0986 24H3.10925C1.7842 24 0.707825 22.9272 0.707825 21.5986V2.40142C0.711377 1.07637 1.7842 0 3.10925 0Z" fill="black"/>
<path d="M39.7206 12.9524C38.3956 12.9524 37.3157 13.947 37.3157 15.3218C37.3157 16.6824 38.3956 17.6913 39.7206 17.6913C41.0457 17.6913 42.1292 16.6859 42.1292 15.3218C42.1256 13.947 41.0457 12.9524 39.7206 12.9524ZM39.7206 16.757C38.996 16.757 38.3707 16.1637 38.3707 15.3218C38.3707 14.4692 38.996 13.8867 39.7206 13.8867C40.4453 13.8867 41.0741 14.4692 41.0741 15.3218C41.0741 16.1637 40.4453 16.757 39.7206 16.757ZM34.4738 12.9524C33.1487 12.9524 32.0688 13.947 32.0688 15.3218C32.0688 16.6824 33.1487 17.6913 34.4738 17.6913C35.7988 17.6913 36.8787 16.6859 36.8787 15.3218C36.8787 13.947 35.7988 12.9524 34.4738 12.9524ZM34.4738 16.757C33.7455 16.757 33.1203 16.1637 33.1203 15.3218C33.1203 14.4692 33.7455 13.8867 34.4738 13.8867C35.1984 13.8867 35.8237 14.4692 35.8237 15.3218C35.8237 16.1637 35.1984 16.757 34.4738 16.757ZM28.2322 13.6771V14.6824H30.6656C30.5945 15.2437 30.4027 15.6593 30.1114 15.947C29.7562 16.2952 29.202 16.6824 28.2322 16.6824C26.7366 16.6824 25.5643 15.4888 25.5643 14.011C25.5643 12.5332 26.7366 11.336 28.2322 11.336C29.0421 11.336 29.6318 11.6486 30.0652 12.0536L30.7828 11.3431C30.1754 10.7712 29.3654 10.3271 28.2322 10.3271C26.1789 10.3271 24.456 11.979 24.456 14.0074C24.456 16.0359 26.1825 17.6877 28.2322 17.6877C29.3405 17.6877 30.1754 17.3289 30.829 16.654C31.5004 15.9897 31.71 15.0589 31.71 14.3058C31.71 14.0714 31.6887 13.8582 31.6567 13.6771H28.2322ZM53.7597 14.4586C53.5608 13.9293 52.9498 12.9524 51.7064 12.9524C50.4738 12.9524 49.4471 13.9115 49.4471 15.3218C49.4471 16.6469 50.4631 17.6913 51.8237 17.6913C52.9249 17.6913 53.5608 17.027 53.8201 16.6433L53.0031 16.1069C52.7295 16.5012 52.3601 16.7605 51.8237 16.7605C51.2908 16.7605 50.9072 16.519 50.662 16.043L53.8663 14.7321L53.7597 14.4586ZM50.4915 15.2472C50.4631 14.3343 51.2091 13.8653 51.742 13.8653C52.1611 13.8653 52.5164 14.0714 52.6336 14.3698L50.4915 15.2472ZM47.8841 17.5456H48.9391V10.5829H47.8841V17.5456ZM46.1611 13.4781H46.1256C45.8876 13.201 45.4365 12.9524 44.8645 12.9524C43.6638 12.9524 42.5661 13.9932 42.5661 15.3289C42.5661 16.6575 43.6638 17.6877 44.8645 17.6877C45.4365 17.6877 45.8876 17.4355 46.1256 17.1513H46.1611V17.4923C46.1611 18.3982 45.6709 18.8849 44.8823 18.8849C44.2393 18.8849 43.8379 18.4266 43.6745 18.0394L42.758 18.416C43.0208 19.0447 43.7206 19.8156 44.8823 19.8156C46.1185 19.8156 47.1594 19.098 47.1594 17.3502V13.098H46.1611V13.4781ZM44.9533 16.757C44.2286 16.757 43.6212 16.1566 43.6212 15.3289C43.6212 14.4941 44.2286 13.8867 44.9533 13.8867C45.6674 13.8867 46.2322 14.4941 46.2322 15.3289C46.2357 16.1566 45.6709 16.757 44.9533 16.757ZM58.6905 10.5829H56.1718V17.5456H57.2233V14.9062H58.694C59.8627 14.9062 61.0066 14.0714 61.0066 12.7428C61.0031 11.4177 59.8556 10.5829 58.6905 10.5829ZM58.7189 13.9399H57.2233V11.5527H58.7189C59.504 11.5527 59.9516 12.1957 59.9516 12.7463C59.9516 13.2827 59.504 13.9399 58.7189 13.9399ZM65.2127 12.9382C64.4524 12.9382 63.6638 13.2685 63.3405 14.0039L64.2748 14.3911C64.4738 14.0039 64.8432 13.8796 65.234 13.8796C65.7775 13.8796 66.3317 14.2028 66.3388 14.7748V14.8493C66.1505 14.7392 65.742 14.5794 65.2411 14.5794C64.2357 14.5794 63.2127 15.1264 63.2127 16.146C63.2127 17.0803 64.0368 17.6806 64.9604 17.6806C65.6674 17.6806 66.0581 17.3645 66.3032 16.9986H66.3388V17.535H67.3548V14.8636C67.3548 13.6309 66.4205 12.9382 65.2127 12.9382ZM65.0883 16.7534C64.7437 16.7534 64.2642 16.5865 64.2642 16.1637C64.2642 15.6238 64.861 15.4177 65.3796 15.4177C65.8414 15.4177 66.0581 15.5172 66.3388 15.6522C66.2571 16.2952 65.6958 16.7534 65.0883 16.7534ZM71.0528 13.0909L69.845 16.1069H69.8095L68.559 13.0909H67.4258L69.3015 17.3076L68.2322 19.6557H69.3299L72.2215 13.0909H71.0528ZM61.5786 17.5456H62.6336V10.5829H61.5786V17.5456Z" fill="white"/>
<path d="M39.7206 12.9524C38.3956 12.9524 37.3157 13.947 37.3157 15.3218C37.3157 16.6824 38.3956 17.6913 39.7206 17.6913C41.0457 17.6913 42.1292 16.6859 42.1292 15.3218C42.1256 13.947 41.0457 12.9524 39.7206 12.9524ZM39.7206 16.757C38.996 16.757 38.3707 16.1637 38.3707 15.3218C38.3707 14.4692 38.996 13.8867 39.7206 13.8867C40.4453 13.8867 41.0741 14.4692 41.0741 15.3218C41.0741 16.1637 40.4453 16.757 39.7206 16.757ZM34.4738 12.9524C33.1487 12.9524 32.0688 13.947 32.0688 15.3218C32.0688 16.6824 33.1487 17.6913 34.4738 17.6913C35.7988 17.6913 36.8787 16.6859 36.8787 15.3218C36.8787 13.947 35.7988 12.9524 34.4738 12.9524ZM34.4738 16.757C33.7455 16.757 33.1203 16.1637 33.1203 15.3218C33.1203 14.4692 33.7455 13.8867 34.4738 13.8867C35.1984 13.8867 35.8237 14.4692 35.8237 15.3218C35.8237 16.1637 35.1984 16.757 34.4738 16.757ZM28.2322 13.6771V14.6824H30.6656C30.5945 15.2437 30.4027 15.6593 30.1114 15.947C29.7562 16.2952 29.202 16.6824 28.2322 16.6824C26.7366 16.6824 25.5643 15.4888 25.5643 14.011C25.5643 12.5332 26.7366 11.336 28.2322 11.336C29.0421 11.336 29.6318 11.6486 30.0652 12.0536L30.7828 11.3431C30.1754 10.7712 29.3654 10.3271 28.2322 10.3271C26.1789 10.3271 24.456 11.979 24.456 14.0074C24.456 16.0359 26.1825 17.6877 28.2322 17.6877C29.3405 17.6877 30.1754 17.3289 30.829 16.654C31.5004 15.9897 31.71 15.0589 31.71 14.3058C31.71 14.0714 31.6887 13.8582 31.6567 13.6771H28.2322ZM53.7597 14.4586C53.5608 13.9293 52.9498 12.9524 51.7064 12.9524C50.4738 12.9524 49.4471 13.9115 49.4471 15.3218C49.4471 16.6469 50.4631 17.6913 51.8237 17.6913C52.9249 17.6913 53.5608 17.027 53.8201 16.6433L53.0031 16.1069C52.7295 16.5012 52.3601 16.7605 51.8237 16.7605C51.2908 16.7605 50.9072 16.519 50.662 16.043L53.8663 14.7321L53.7597 14.4586ZM50.4915 15.2472C50.4631 14.3343 51.2091 13.8653 51.742 13.8653C52.1611 13.8653 52.5164 14.0714 52.6336 14.3698L50.4915 15.2472ZM47.8841 17.5456H48.9391V10.5829H47.8841V17.5456ZM46.1611 13.4781H46.1256C45.8876 13.201 45.4365 12.9524 44.8645 12.9524C43.6638 12.9524 42.5661 13.9932 42.5661 15.3289C42.5661 16.6575 43.6638 17.6877 44.8645 17.6877C45.4365 17.6877 45.8876 17.4355 46.1256 17.1513H46.1611V17.4923C46.1611 18.3982 45.6709 18.8849 44.8823 18.8849C44.2393 18.8849 43.8379 18.4266 43.6745 18.0394L42.758 18.416C43.0208 19.0447 43.7207 19.8156 44.8823 19.8156C46.1185 19.8156 47.1594 19.098 47.1594 17.3502V13.098H46.1611V13.4781ZM44.9533 16.757C44.2286 16.757 43.6212 16.1566 43.6212 15.3289C43.6212 14.4941 44.2286 13.8867 44.9533 13.8867C45.6674 13.8867 46.2322 14.4941 46.2322 15.3289C46.2357 16.1566 45.6709 16.757 44.9533 16.757ZM58.6905 10.5829H56.1718V17.5456H57.2233V14.9062H58.694C59.8627 14.9062 61.0066 14.0714 61.0066 12.7428C61.0031 11.4177 59.8556 10.5829 58.6905 10.5829ZM58.7189 13.9399H57.2233V11.5527H58.7189C59.504 11.5527 59.9516 12.1957 59.9516 12.7463C59.9516 13.2827 59.504 13.9399 58.7189 13.9399ZM65.2127 12.9382C64.4524 12.9382 63.6638 13.2685 63.3405 14.0039L64.2748 14.3911C64.4738 14.0039 64.8432 13.8796 65.234 13.8796C65.7775 13.8796 66.3317 14.2028 66.3388 14.7748V14.8493C66.1505 14.7392 65.742 14.5794 65.2411 14.5794C64.2357 14.5794 63.2127 15.1264 63.2127 16.146C63.2127 17.0803 64.0368 17.6806 64.9604 17.6806C65.6674 17.6806 66.0581 17.3645 66.3032 16.9986H66.3388V17.535H67.3548V14.8636C67.3548 13.6309 66.4205 12.9382 65.2127 12.9382ZM65.0883 16.7534C64.7437 16.7534 64.2642 16.5865 64.2642 16.1637C64.2642 15.6238 64.861 15.4177 65.3796 15.4177C65.8414 15.4177 66.0581 15.5172 66.3388 15.6522C66.2571 16.2952 65.6958 16.7534 65.0883 16.7534ZM71.0528 13.0909L69.845 16.1069H69.8095L68.559 13.0909H67.4258L69.3015 17.3076L68.2322 19.6557H69.3299L72.2215 13.0909H71.0528ZM61.5786 17.5456H62.6336V10.5829H61.5786V17.5456Z" stroke="white" stroke-width="0.1351" stroke-linecap="round" stroke-linejoin="round"/>
<path d="M7.20874 5.03774C7.04178 5.20826 6.94586 5.47469 6.94586 5.81928V18.1354C6.94586 18.48 7.04178 18.7465 7.20874 18.917L7.24782 18.956L14.2283 12.0573V11.8939L7.24782 4.99512L7.20874 5.03774Z" fill="url(#paint0_linear_523_16802)"/>
<path d="M16.5587 14.3591L14.2355 12.0572V11.8938L16.5623 9.5918L16.6156 9.62022L19.3722 11.1691C20.1573 11.6096 20.1573 12.3342 19.3722 12.7747L16.6156 14.3236L16.5587 14.3591Z" fill="url(#paint1_linear_523_16802)"/>
<path d="M16.6121 14.3273L14.232 11.9756L7.20892 18.917C7.4718 19.187 7.89454 19.2225 8.38122 18.9489L16.6121 14.3273Z" fill="url(#paint2_linear_523_16802)"/>
<path d="M16.6121 9.62367L8.38122 5.00201C7.89809 4.73202 7.4718 4.76754 7.20892 5.03753L14.232 11.9754L16.6121 9.62367Z" fill="url(#paint3_linear_523_16802)"/>
<path d="M25.1736 6.51868V6.10305C25.1736 5.65545 25.2944 5.30376 25.5324 5.04799C25.774 4.78866 26.1008 4.65723 26.5129 4.65723C26.7083 4.65723 26.8823 4.68565 27.0387 4.74604C27.195 4.80643 27.3264 4.88458 27.4259 4.9876C27.5253 5.08706 27.6035 5.20074 27.6568 5.32863C27.7136 5.45652 27.7456 5.58796 27.7491 5.73005H27.195C27.1701 5.54178 27.0955 5.39612 26.9712 5.2931C26.8433 5.19008 26.6905 5.1368 26.5058 5.1368C26.2784 5.1368 26.0937 5.21851 25.9516 5.37836C25.8095 5.53822 25.742 5.77978 25.742 6.10305V6.51513C25.742 6.82064 25.806 7.0622 25.9303 7.23627C26.0582 7.41033 26.25 7.49559 26.5058 7.49559C26.7154 7.49559 26.8894 7.43875 27.0173 7.32153C27.1488 7.2043 27.2127 7.05865 27.2127 6.88103V6.65012H26.5058V6.20962H27.7562V6.85261C27.7562 6.95207 27.742 7.05154 27.7172 7.15101C27.6923 7.25048 27.6461 7.34994 27.5822 7.45296C27.5182 7.55243 27.4401 7.64124 27.3477 7.71939C27.2553 7.79399 27.1346 7.85793 26.9854 7.90767C26.8397 7.95385 26.6763 7.97872 26.4987 7.97872C26.0582 7.97872 25.7278 7.84728 25.504 7.5844C25.2838 7.32152 25.1736 6.96628 25.1736 6.51868ZM28.7189 7.91833V4.72117H30.7403V5.19364H29.2838V6.07108H30.6514V6.51868H29.2838V7.44586H30.7403V7.91833H28.7189ZM31.4117 5.20074V4.72117H33.8308V5.20074H32.9001V7.91833H32.3388V5.20074H31.4117ZM35.9445 7.91833V4.72117H36.5129V7.91833H35.9445ZM37.2944 5.20074V4.72117H39.7136V5.20074H38.7829V7.91833H38.2216V5.20074H37.2944ZM41.6994 6.5471V6.12081C41.6994 5.66611 41.8202 5.31087 42.0617 5.05154C42.3033 4.79222 42.6301 4.66078 43.0458 4.66078C43.4614 4.66078 43.7882 4.79222 44.0262 5.05154C44.2642 5.31087 44.385 5.66966 44.385 6.12081V6.5471C44.385 6.99825 44.2642 7.34994 44.0227 7.60216C43.7847 7.85438 43.4543 7.98227 43.0351 7.98227C42.6195 7.98227 42.2891 7.85438 42.0546 7.60216C41.8202 7.34994 41.6994 6.99825 41.6994 6.5471ZM42.2713 6.5471C42.2713 6.85971 42.3424 7.09772 42.4809 7.25758C42.623 7.41744 42.8077 7.49915 43.0422 7.49915C43.2731 7.49915 43.4578 7.41744 43.5999 7.25758C43.742 7.09417 43.8095 6.85616 43.8095 6.5471V6.11371C43.8095 5.8011 43.7385 5.55953 43.5964 5.38902C43.4543 5.22206 43.2696 5.1368 43.0422 5.1368C42.8113 5.1368 42.623 5.22206 42.4809 5.38902C42.3388 5.55953 42.2713 5.8011 42.2713 6.11371V6.5471ZM45.3477 7.91833V4.72117H45.8379L47.3086 6.95918H47.3264V4.72117H47.8664V7.91833H47.3797L45.9054 5.67321H45.8877V7.91833H45.3477Z" fill="white"/>
<defs>
<linearGradient id="paint0_linear_523_16802" x1="13.5792" y1="18.2975" x2="4.23439" y2="8.84279" gradientUnits="userSpaceOnUse">
<stop offset="1e-05" stop-color="#00A0FF"/>
<stop offset="0.0066" stop-color="#00A1FF"/>
<stop offset="0.2601" stop-color="#00BEFF"/>
<stop offset="0.5122" stop-color="#00D2FF"/>
<stop offset="0.7604" stop-color="#00DFFF"/>
<stop offset="1" stop-color="#00E3FF"/>
</linearGradient>
<linearGradient id="paint1_linear_523_16802" x1="20.3939" y1="11.9764" x2="6.76102" y2="11.9764" gradientUnits="userSpaceOnUse">
<stop offset="1e-05" stop-color="#FFE000"/>
<stop offset="0.4087" stop-color="#FFBD00"/>
<stop offset="0.7754" stop-color="#FFA500"/>
<stop offset="1" stop-color="#FF9C00"/>
</linearGradient>
<linearGradient id="paint2_linear_523_16802" x1="10.6331" y1="15.3296" x2="-2.03929" y2="2.50795" gradientUnits="userSpaceOnUse">
<stop offset="1e-05" stop-color="#FF3A44"/>
<stop offset="1" stop-color="#C31162"/>
</linearGradient>
<linearGradient id="paint3_linear_523_16802" x1="0.873185" y1="18.4987" x2="6.53198" y2="12.7735" gradientUnits="userSpaceOnUse">
<stop offset="1e-05" stop-color="#32A071"/>
<stop offset="0.0685" stop-color="#2DA771"/>
<stop offset="0.4762" stop-color="#15CF74"/>
<stop offset="0.8009" stop-color="#06E775"/>
<stop offset="1" stop-color="#00F076"/>
</linearGradient>
</defs>
</svg>
