<svg width="17" height="16" viewBox="0 0 17 16" fill="none" xmlns="http://www.w3.org/2000/svg">
<g clip-path="url(#clip0_523_16768)">
<path d="M8.5 0C4.08176 0 0.5 3.58176 0.5 8C0.5 11.7517 3.08304 14.8998 6.56752 15.7645V10.4448H4.91792V8H6.56752V6.94656C6.56752 4.22368 7.79984 2.9616 10.4731 2.9616C10.98 2.9616 11.8546 3.06112 12.2123 3.16032V5.37632C12.0235 5.35648 11.6955 5.34656 11.2882 5.34656C9.97648 5.34656 9.4696 5.84352 9.4696 7.13536V8H12.0827L11.6338 10.4448H9.4696V15.9414C13.4309 15.463 16.5003 12.0902 16.5003 8C16.5 3.58176 12.9182 0 8.5 0Z" fill="#616161"/>
</g>
<defs>
<clipPath id="clip0_523_16768">
<rect width="16" height="16" fill="white" transform="translate(0.5)"/>
</clipPath>
</defs>
</svg>
