<svg width="16" height="16" viewBox="0 0 16 16" fill="none" xmlns="http://www.w3.org/2000/svg">
<path d="M13.1905 7.82056C13.0566 7.82056 12.938 7.77267 12.8348 7.67689C12.7315 7.581 12.6716 7.46222 12.6551 7.32056C12.5107 6.24445 12.0575 5.32545 11.2955 4.56356C10.5335 3.80156 9.61448 3.34834 8.53848 3.20389C8.39681 3.18722 8.27804 3.12889 8.18215 3.02889C8.08637 2.92889 8.03848 2.80806 8.03848 2.66639C8.03848 2.52472 8.08804 2.40606 8.18715 2.31039C8.28626 2.21461 8.40337 2.17572 8.53848 2.19372C9.8957 2.34072 11.0528 2.89261 12.0096 3.84939C12.9664 4.80628 13.5183 5.96334 13.6653 7.32056C13.6833 7.45556 13.6442 7.57267 13.548 7.67189C13.4518 7.771 13.3326 7.82056 13.1905 7.82056ZM10.4321 7.82056C10.3235 7.82056 10.2273 7.78339 10.1436 7.70906C10.0599 7.63473 9.99704 7.53556 9.95515 7.41156C9.85337 7.05089 9.66681 6.73272 9.39548 6.45706C9.12415 6.18139 8.80815 5.99489 8.44748 5.89756C8.32348 5.85567 8.22431 5.79295 8.14998 5.70939C8.07565 5.62584 8.03848 5.52556 8.03848 5.40856C8.03848 5.24134 8.09592 5.10645 8.21081 5.00389C8.32581 4.90134 8.45637 4.868 8.60248 4.90389C9.18626 5.03945 9.68926 5.31845 10.1115 5.74089C10.5337 6.16323 10.8149 6.66839 10.9551 7.25639C10.991 7.40261 10.9546 7.53317 10.846 7.64806C10.7373 7.76306 10.5994 7.82056 10.4321 7.82056ZM12.9601 13.6667C11.7038 13.6667 10.4416 13.3746 9.17365 12.7904C7.90576 12.2062 6.74081 11.3821 5.67881 10.3181C4.61692 9.25395 3.79387 8.08895 3.20965 6.82306C2.62542 5.55728 2.33331 4.29623 2.33331 3.03989C2.33331 2.838 2.39998 2.66978 2.53331 2.53522C2.66665 2.40067 2.83331 2.33339 3.03331 2.33339H5.20765C5.37598 2.33339 5.52448 2.38834 5.65315 2.49822C5.78181 2.608 5.86365 2.74367 5.89865 2.90522L6.28081 4.86672C6.30726 5.04872 6.3017 5.20511 6.26415 5.33589C6.22648 5.46667 6.15892 5.5765 6.06148 5.66539L4.52181 7.16422C4.76959 7.618 5.0527 8.04728 5.37115 8.45206C5.68948 8.85672 6.03415 9.24323 6.40515 9.61156C6.77092 9.97745 7.15981 10.3172 7.57181 10.6309C7.98381 10.9446 8.4287 11.2364 8.90648 11.5066L10.4025 9.99756C10.5068 9.889 10.6331 9.81289 10.7815 9.76923C10.9297 9.72567 11.0838 9.715 11.2436 9.73723L13.0948 10.1142C13.2631 10.1587 13.4005 10.2446 13.507 10.3719C13.6134 10.4992 13.6666 10.6437 13.6666 10.8052V12.9667C13.6666 13.1667 13.5994 13.3334 13.4648 13.4667C13.3303 13.6001 13.162 13.6667 12.9601 13.6667ZM4.04865 6.21806L5.23848 5.07956C5.25981 5.06245 5.2737 5.03895 5.28015 5.00906C5.28659 4.97917 5.28554 4.95139 5.27698 4.92572L4.98715 3.43589C4.97859 3.40178 4.96365 3.37617 4.94231 3.35906C4.92098 3.34195 4.8932 3.33339 4.85898 3.33339H3.43331C3.40765 3.33339 3.38626 3.34195 3.36915 3.35906C3.35215 3.37617 3.34365 3.39756 3.34365 3.42322C3.37776 3.87878 3.45231 4.34156 3.56731 4.81156C3.6822 5.28167 3.84265 5.7505 4.04865 6.21806ZM9.84865 11.9796C10.2905 12.1856 10.7514 12.3431 11.2313 12.4521C11.7113 12.5609 12.1598 12.6257 12.5768 12.6462C12.6025 12.6462 12.6239 12.6377 12.641 12.6206C12.6581 12.6034 12.6666 12.5821 12.6666 12.5564V11.1539C12.6666 11.1197 12.6581 11.0919 12.641 11.0706C12.6239 11.0492 12.5983 11.0343 12.5641 11.0257L11.1641 10.7411C11.1385 10.7325 11.116 10.7314 11.0968 10.7379C11.0776 10.7443 11.0573 10.7582 11.0358 10.7796L9.84865 11.9796Z" fill="#616161"/>
</svg>
