<svg width="14" height="10" viewBox="0 0 14 10" fill="none" xmlns="http://www.w3.org/2000/svg">
<path d="M1.87185 10C1.53508 10 1.25002 9.88333 1.01669 9.65C0.783354 9.41667 0.666687 9.13161 0.666687 8.79483V1.20517C0.666687 0.868389 0.783354 0.583333 1.01669 0.35C1.25002 0.116667 1.53508 0 1.87185 0H12.1282C12.465 0 12.75 0.116667 12.9834 0.35C13.2167 0.583333 13.3334 0.868389 13.3334 1.20517V8.79483C13.3334 9.13161 13.2167 9.41667 12.9834 9.65C12.75 9.88333 12.465 10 12.1282 10H1.87185ZM12.3334 1.9615L7.32435 5.168C7.27313 5.197 7.22013 5.21983 7.16535 5.2365C7.11069 5.25317 7.05558 5.2615 7.00002 5.2615C6.94446 5.2615 6.88935 5.25317 6.83469 5.2365C6.77991 5.21983 6.72691 5.197 6.67569 5.168L1.66669 1.9615V8.79483C1.66669 8.85472 1.68591 8.90389 1.72435 8.94233C1.7628 8.98078 1.81196 9 1.87185 9H12.1282C12.1881 9 12.2372 8.98078 12.2757 8.94233C12.3141 8.90389 12.3334 8.85472 12.3334 8.79483V1.9615ZM7.00002 4.33333L12.2309 1H1.76919L7.00002 4.33333ZM1.66669 2.11533V1.35317V1.373V1.35183V2.11533Z" fill="#616161"/>
</svg>
